<svg xmlns="http://www.w3.org/2000/svg" width="228.66" height="34.02" viewBox="0 0 228.66 34.02"><path d="M176.08,31.51a9,9,0,0,1,9.33-9.2,8,8,0,0,1,7.13,4l-2.64,1.39a5.26,5.26,0,0,0-4.49-2.59,6.08,6.08,0,0,0-6.13,6.43,6.11,6.11,0,0,0,6.13,6.43,5.33,5.33,0,0,0,4.49-2.59l2.66,1.33a8.11,8.11,0,0,1-7.15,4A9,9,0,0,1,176.08,31.51Z" transform="translate(-17.5 -14.5)" fill="#414042"/><path d="M227.27,40.71l-4.06-6.87H220v6.87h-3.23V22.31h8.08c3.65,0,6,2.34,6,5.76a5.19,5.19,0,0,1-4.39,5.41L231,40.71Zm.3-12.67a2.87,2.87,0,0,0-3.14-2.89H220V31h4.44A2.91,2.91,0,0,0,227.57,28Z" transform="translate(-17.5 -14.5)" fill="#414042"/><path d="M233.55,40.71V22.31h12.61v2.84h-9.38v4.74H246v2.85h-9.19v5.13h9.38v2.84Z" transform="translate(-17.5 -14.5)" fill="#414042"/><path d="M198.85,33.15" transform="translate(-17.5 -14.5)" fill="#ef4a60"/><path d="M200.49,34.78a.51.51,0,0,1-.28-.09l-1.65-1.13a.5.5,0,1,1,.57-.82l1.65,1.13a.5.5,0,0,1,.13.69A.52.52,0,0,1,200.49,34.78Z" transform="translate(-17.5 -14.5)" fill="#ef4a60"/><path d="M200.49,34.78a.46.46,0,0,1-.23-.06.5.5,0,0,1-.21-.67L201.7,31a.5.5,0,0,1,.68-.21.51.51,0,0,1,.2.68l-1.64,3.09A.52.52,0,0,1,200.49,34.78Z" transform="translate(-17.5 -14.5)" fill="#ef4a60"/><path d="M203.79,35.82a.48.48,0,0,1-.46-.32l-1.65-4.12a.5.5,0,0,1,.28-.65.5.5,0,0,1,.65.28l1.64,4.12a.49.49,0,0,1-.27.65A.43.43,0,0,1,203.79,35.82Z" transform="translate(-17.5 -14.5)" fill="#ef4a60"/><path d="M203.79,35.82h-.1a.51.51,0,0,1-.39-.59L205,26.79a.48.48,0,0,1,.58-.39.49.49,0,0,1,.4.58l-1.65,8.43A.5.5,0,0,1,203.79,35.82Z" transform="translate(-17.5 -14.5)" fill="#ef4a60"/><path d="M207.08,35a.49.49,0,0,1-.48-.39L205,27a.49.49,0,0,1,.38-.59.5.5,0,0,1,.6.38l1.64,7.66a.49.49,0,0,1-.38.59Z" transform="translate(-17.5 -14.5)" fill="#ef4a60"/><path d="M207.09,35a.45.45,0,0,1-.2,0,.51.51,0,0,1-.27-.65l1.65-3.93a.51.51,0,0,1,.66-.26.49.49,0,0,1,.26.65l-1.64,3.93A.5.5,0,0,1,207.09,35Z" transform="translate(-17.5 -14.5)" fill="#ef4a60"/><path d="M210.38,33.3a.48.48,0,0,1-.4-.2l-1.65-2.18a.51.51,0,0,1,.1-.7.5.5,0,0,1,.7.1l1.65,2.18a.5.5,0,0,1-.1.7A.47.47,0,0,1,210.38,33.3Z" transform="translate(-17.5 -14.5)" fill="#ef4a60"/><path d="M195.56,31.51a9.1,9.1,0,1,1,18.2,0,9.1,9.1,0,1,1-18.2,0Zm15,0c0-3.68-2.33-6.43-5.9-6.43s-5.9,2.75-5.9,6.43,2.3,6.43,5.9,6.43S210.56,35.16,210.56,31.51Z" transform="translate(-17.5 -14.5)" fill="#414042"/><path d="M38.19,37.51c.41,0,.35-.22.35-.65V34.79c0-.42,0-.56.21-.56.85,0,1.08-.08,1.08-.84V25.71c0-2.1-1.48-1.75-1.89-2.51-.6-1,1.1-1,.48-3.28-.15-.51-.55-.82-1.32-.82a1.2,1.2,0,0,0-1.32.82c-.62,2.24,1.09,2.24.49,3.28-.42.76-1.89.41-1.89,2.51v7.68c0,.76.23.84,1.08.84.24,0,.2.14.2.56v2.07c0,.43,0,.65.35.65h2.18" transform="translate(-17.5 -14.5)" fill="#0072bc"/><path d="M31.46,20.84c-.75.81-1.95,2.68-1.17,4.24,1.59.61,1.47-5,3.44-4.92,1,.9-.29,3.56-.68,4.73-.49,1.44-.88,4.46-1.8,5.92-.78,1.22-.2,5.05-.44,6.37-.66.66-2.44.19-3.2.07a50.52,50.52,0,0,0-.44-5.12c0-.49-.53-8-.12-8.85.86-1.88,5.51-5.46,6.15-6.15s2.53-2.63,3.29-2.63c.53.37.22,1.22.1,1.56-.76,1.88-4,3.73-5.13,4.78" transform="translate(-17.5 -14.5)" fill="#0072bc"/><path d="M42.83,20.84c.73.81,1.93,2.68,1.17,4.24-1.61.61-1.49-5-3.46-4.92-.95.9.31,3.56.7,4.73.49,1.44.88,4.46,1.81,5.92.76,1.22.19,5.05.41,6.37.69.66,2.44.19,3.22.07a49.45,49.45,0,0,1,.42-5.12c0-.49.56-8,.14-8.85-.85-1.88-5.51-5.46-6.14-6.15s-2.54-2.63-3.3-2.63c-.55.37-.21,1.22-.09,1.56.75,1.88,4,3.73,5.12,4.78" transform="translate(-17.5 -14.5)" fill="#0072bc"/><path d="M24.69,18.31c-.41.39-1.34.66-2,1.51-.24-.46.39-1.58,1.15-2.24a9.5,9.5,0,0,1,2-1.3c.24.57-.64,1.42-1.15,2" transform="translate(-17.5 -14.5)" fill="#0072bc"/><path d="M23.39,21.37A14.82,14.82,0,0,0,21,23.49a7.33,7.33,0,0,1-.12-3.57c.34-1.12.9-2.37,1.86-2.76a10.35,10.35,0,0,0-.59,2.72c-.41,1.63-.66,1.68-.56,1.9.09,0,.63-.85,1.29-1.51a13,13,0,0,1,2.4-1.42,8.3,8.3,0,0,1-1.84,2.52" transform="translate(-17.5 -14.5)" fill="#0072bc"/><path d="M20,28.14a8.87,8.87,0,0,1-1.12-4.41c.05-1,.53-3.32,1.27-3.66-.22,2.1.34,2.3.12,4,0,.1-.25,1.91-.25,2,.3-.05,0-1.67,3.37-4-.72,1.27-.39,1.66-1.71,3.35A6.22,6.22,0,0,0,20,28.14" transform="translate(-17.5 -14.5)" fill="#0072bc"/><path d="M21.3,29.75a4.6,4.6,0,0,0-.76,2c-1.69-1-3.6-4.86-2.89-6.8.44,1.47,1.05,1.79,1.49,3,.76,1.83.64,2.39,1.13,2.81a6.8,6.8,0,0,1,.54-2.91A15.22,15.22,0,0,1,22,25.94a4.67,4.67,0,0,1-.68,3.81" transform="translate(-17.5 -14.5)" fill="#0072bc"/><path d="M22.81,33.07a21.44,21.44,0,0,1-.39,3.25A7.06,7.06,0,0,1,18,30.41c.89,2,2.18,2,3.87,4.81.14-1.07-.3-.27-.34-2.29s.48-2.21.56-3.52c.54.58.73,2.93.73,3.66" transform="translate(-17.5 -14.5)" fill="#0072bc"/><path d="M25.23,37.3c.22,1.1.31,2.39.49,3.35-1.66-.61-2.08-.15-4.06-1.4-.9-.49-2.52-2.54-2.42-4A13.72,13.72,0,0,0,22.49,38c.88.71,1.59,1.76,2.23,1.62,0-.59-1.45-1.86-1.25-5.53a10.46,10.46,0,0,1,1.76,3.23" transform="translate(-17.5 -14.5)" fill="#0072bc"/><path d="M28.53,40a12.26,12.26,0,0,0,1.71,2.56,14.24,14.24,0,0,1-3.45.69c-.83,0-3.76-.79-4.74-2.79,1.69.9,1.71.68,4,1.17a29.77,29.77,0,0,0,3.2.83A13.94,13.94,0,0,1,27,40.7c-.85-1.15-.66-2.45-1.42-3.4.52-.15,2.52,2.2,2.94,2.74" transform="translate(-17.5 -14.5)" fill="#0072bc"/><path d="M49.47,18.31c.39.39,1.34.66,2,1.51.27-.46-.39-1.58-1.15-2.24a8.16,8.16,0,0,0-2-1.3c-.24.57.64,1.42,1.18,2" transform="translate(-17.5 -14.5)" fill="#0072bc"/><path d="M50.76,21.37a14.83,14.83,0,0,1,2.42,2.12,7.23,7.23,0,0,0,.13-3.57,4.13,4.13,0,0,0-1.86-2.76A9.65,9.65,0,0,1,52,19.88c.42,1.63.66,1.68.57,1.9-.1,0-.64-.85-1.3-1.51a11.75,11.75,0,0,0-2.39-1.42,8.42,8.42,0,0,0,1.85,2.52" transform="translate(-17.5 -14.5)" fill="#0072bc"/><path d="M54.18,28.14a8.68,8.68,0,0,0,1.13-4.41c-.05-1-.54-3.32-1.25-3.66.2,2.1-.37,2.3-.12,4,0,.1.22,1.91.22,2-.27-.05,0-1.67-3.35-4,.71,1.27.37,1.66,1.69,3.35a5.67,5.67,0,0,1,1.68,2.67" transform="translate(-17.5 -14.5)" fill="#0072bc"/><path d="M52.86,29.75a4.9,4.9,0,0,1,.74,2c1.68-1,3.61-4.86,2.88-6.8-.42,1.47-1,1.79-1.47,3-.78,1.83-.66,2.39-1.12,2.81a6.81,6.81,0,0,0-.56-2.91,13.12,13.12,0,0,0-1.18-1.95,4.69,4.69,0,0,0,.71,3.81" transform="translate(-17.5 -14.5)" fill="#0072bc"/><path d="M51.32,33.07a21.06,21.06,0,0,0,.42,3.25,7.09,7.09,0,0,0,4.42-5.91c-.9,2-2.17,2-3.88,4.81-.15-1.07.29-.27.34-2.29s-.49-2.21-.56-3.52c-.54.58-.74,2.93-.74,3.66" transform="translate(-17.5 -14.5)" fill="#0072bc"/><path d="M48.91,37.3c-.23,1.1-.3,2.39-.47,3.35,1.64-.61,2.05-.15,4-1.4.91-.49,2.54-2.54,2.45-4A14.14,14.14,0,0,1,51.67,38c-.88.71-1.62,1.76-2.25,1.62-.05-.59,1.44-1.86,1.27-5.53a9.68,9.68,0,0,0-1.78,3.23" transform="translate(-17.5 -14.5)" fill="#0072bc"/><path d="M45.61,40A10.75,10.75,0,0,1,43.9,42.6a14.34,14.34,0,0,0,3.47.69c.8,0,3.73-.79,4.71-2.79-1.68.9-1.71.68-4,1.17a28,28,0,0,1-3.2.83,12.65,12.65,0,0,0,2.2-1.8c.86-1.15.66-2.45,1.44-3.4-.53-.15-2.54,2.2-3,2.74" transform="translate(-17.5 -14.5)" fill="#0072bc"/><path d="M32.9,46.93l-.49-.25a10.72,10.72,0,0,1,8.43-3.49c5.33.29,5,1.54,7.82,1.34.32,0-.24.39-.24.39a9.81,9.81,0,0,1-6.23-.1c-3.43-1.17-5.65-1.88-9.29,2.11" transform="translate(-17.5 -14.5)" fill="#0072bc"/><path d="M41.33,46.93l.49-.25a10.63,10.63,0,0,0-8.41-3.49c-5.35.29-5,1.54-7.84,1.34-.32,0,.24.39.24.39a9.84,9.84,0,0,0,6.24-.1c3.44-1.17,5.66-1.88,9.28,2.11" transform="translate(-17.5 -14.5)" fill="#0072bc"/><path d="M79.09,30.45c0,5.1-2.75,7.55-8.37,7.55s-8.41-2.45-8.41-7.55V19.16H68v10c0,1.89,0,4.23,2.76,4.23s2.68-2.34,2.68-4.23v-10h5.67V30.45" transform="translate(-17.5 -14.5)" fill="#0072bc"/><polygon points="65 4.66 70.8 4.66 76.16 14.5 76.21 14.5 76.21 4.66 81.57 4.66 81.57 23.06 76.06 23.06 70.41 13.01 70.36 13.01 70.36 23.06 65 23.06 65 4.66 65 4.66" fill="#0072bc"/><polygon points="85.05 4.66 90.73 4.66 90.73 11.05 96.04 11.05 96.04 4.66 101.71 4.66 101.71 23.06 96.04 23.06 96.04 15.77 90.73 15.77 90.73 23.06 85.05 23.06 85.05 4.66 85.05 4.66" fill="#0072bc"/><path d="M133.72,26a2.94,2.94,0,0,0-3-2.7c-2.66,0-3.51,2.57-3.51,5.05s.85,5,3.51,5c1.91,0,2.65-1.34,3-3.06h5.57c0,3.71-3,7.65-8.41,7.65-6,0-9.33-4.2-9.33-9.64,0-5.8,3.66-9.64,9.33-9.64,5.06,0,7.84,2.68,8.33,7.29h-5.52" transform="translate(-17.5 -14.5)" fill="#0072bc"/><path d="M141.69,37.56h5.67V31.14h3c2.24,0,2.4,1.84,2.55,3.59a13,13,0,0,0,.47,2.83h5.67c-.52-.85-.54-3-.62-3.94-.21-2.3-1.16-4-2.71-4.59a4.73,4.73,0,0,0,2.76-4.61c0-3.49-2.79-5.26-6-5.26h-10.8v18.4m5.67-14H150c2.16,0,2.81.67,2.81,1.83,0,1.65-1.45,1.83-2.5,1.83h-3V23.54Z" transform="translate(-17.5 -14.5)" fill="#0072bc"/><polygon points="46.65 27.3 44.8 27.3 44.8 26.15 49.86 26.15 49.86 27.3 48.01 27.3 48.01 32.32 46.65 32.32 46.65 27.3 46.65 27.3" fill="#0072bc"/><path d="M67.78,40.65H69V43h0a1.59,1.59,0,0,1,1.31-.74c1.3,0,1.63.73,1.63,1.83v2.75H70.74V44.3c0-.74-.21-1.1-.78-1.1s-.95.37-.95,1.28v2.34H67.78V40.65" transform="translate(-17.5 -14.5)" fill="#0072bc"/><path d="M75.72,44.11c-.11-.62-.38-1-1-1a1,1,0,0,0-1,1h2m-2,.78c0,.77.41,1.13,1.09,1.13a1,1,0,0,0,1-.58h1.08a2,2,0,0,1-2.09,1.5,2.18,2.18,0,0,1-2.28-2.35,2.24,2.24,0,1,1,4.45.3Z" transform="translate(-17.5 -14.5)" fill="#0072bc"/><path d="M84.91,44.49c0,1.67-1,2.48-2.63,2.48s-2.63-.8-2.63-2.48V40.65H81v3.84c0,.67.17,1.34,1.27,1.34s1.28-.43,1.28-1.34V40.65h1.35v3.84" transform="translate(-17.5 -14.5)" fill="#0072bc"/><polygon points="68.32 26.15 69.67 26.15 72.24 30.29 72.26 30.29 72.26 26.15 73.53 26.15 73.53 32.32 72.17 32.32 69.61 28.19 69.59 28.19 69.59 32.32 68.32 32.32 68.32 26.15 68.32 26.15" fill="#0072bc"/><path d="M94,46.82h1.36V44.41H96.7c.68,0,.93.29,1,.93a7.1,7.1,0,0,0,.22,1.48H99.3A3.16,3.16,0,0,1,99,45.36c-.05-.62-.24-1.27-.9-1.44v0a1.52,1.52,0,0,0,1-1.54,1.7,1.7,0,0,0-1.81-1.71H94v6.17m1.36-5.11h1.49c.6,0,.93.26.93.85s-.33.88-.93.88H95.34V41.71Z" transform="translate(-17.5 -14.5)" fill="#0072bc"/><path d="M104.17,44.89a2.24,2.24,0,1,0-4.45-.3A2.18,2.18,0,0,0,102,46.94a2,2,0,0,0,2.09-1.5H103a1,1,0,0,1-1,.58c-.68,0-1.06-.36-1.09-1.13h3.22M101,44.11a1,1,0,0,1,1-1c.59,0,.86.33,1,1Z" transform="translate(-17.5 -14.5)" fill="#0072bc"/><path d="M105,43.18h-.74v-.82H105V42a1.31,1.31,0,0,1,1.49-1.36c.22,0,.44,0,.65,0v.91l-.45,0c-.33,0-.47.14-.47.51v.27h.85v.82h-.85v3.64H105V43.18" transform="translate(-17.5 -14.5)" fill="#0072bc"/><path d="M111.62,46.82h-1.17V46.2h0a1.6,1.6,0,0,1-1.37.74c-1.3,0-1.63-.73-1.63-1.84V42.36h1.23v2.52c0,.73.21,1.1.78,1.1s1-.38,1-1.28V42.36h1.23v4.46" transform="translate(-17.5 -14.5)" fill="#0072bc"/><path d="M116.66,42.36h-1.17V43h0a1.38,1.38,0,0,0-1.33-.71,2,2,0,0,0-1.92,2.21c0,1.22.57,2.24,1.91,2.24a1.5,1.5,0,0,0,1.34-.69h0v.59c0,.64-.3,1.1-1,1.1a.82.82,0,0,1-.91-.61h-1.22c.06,1,1.09,1.44,2,1.44,2.06,0,2.32-1.25,2.32-2V42.36m-2.22,3.41c-.75,0-1-.7-1-1.34s.3-1.27,1-1.27,1,.65,1,1.37a1.11,1.11,0,0,1-1,1.24" transform="translate(-17.5 -14.5)" fill="#0072bc"/><path d="M121.72,44.89a2.24,2.24,0,1,0-4.45-.3,2.18,2.18,0,0,0,2.28,2.35,2,2,0,0,0,2.09-1.5h-1.08a1,1,0,0,1-1,.58c-.68,0-1.06-.36-1.09-1.13h3.22m-3.22-.78a1,1,0,0,1,1-1c.6,0,.87.33,1,1Z" transform="translate(-17.5 -14.5)" fill="#0072bc"/><path d="M126.52,44.89a2.24,2.24,0,1,0-4.45-.3,2.18,2.18,0,0,0,2.28,2.35,2,2,0,0,0,2.09-1.5h-1.08a1,1,0,0,1-1,.58c-.68,0-1.06-.36-1.09-1.13h3.22m-3.22-.78a1,1,0,0,1,1-1c.59,0,.86.33,1,1Z" transform="translate(-17.5 -14.5)" fill="#0072bc"/><path d="M129.12,46.82h1.37l.49-1.37h2.3l.47,1.37h1.41l-2.31-6.17h-1.39l-2.34,6.17Zm3-4.65h0l.78,2.27h-1.6l.8-2.27Z" transform="translate(-17.5 -14.5)" fill="#0072bc"/><path d="M139.67,42.36H138.5V43h0a1.38,1.38,0,0,0-1.33-.71,2,2,0,0,0-1.91,2.21c0,1.22.57,2.24,1.9,2.24a1.49,1.49,0,0,0,1.34-.69h0v.59c0,.64-.3,1.1-1,1.1a.83.83,0,0,1-.92-.61h-1.22c.06,1,1.09,1.44,2,1.44,2.06,0,2.32-1.25,2.32-2V42.36m-2.21,3.41c-.76,0-1-.7-1-1.34s.31-1.27,1-1.27,1,.65,1,1.37a1.1,1.1,0,0,1-1,1.24" transform="translate(-17.5 -14.5)" fill="#0072bc"/><path d="M144.73,44.89a2.24,2.24,0,1,0-4.45-.3,2.18,2.18,0,0,0,2.28,2.35,2,2,0,0,0,2.09-1.5h-1.08a1,1,0,0,1-1,.58c-.68,0-1.06-.36-1.09-1.13h3.22m-3.22-.78a1,1,0,0,1,1-1c.59,0,.86.33,1,1Z" transform="translate(-17.5 -14.5)" fill="#0072bc"/><path d="M145.26,42.36h1.17V43h0a1.58,1.58,0,0,1,1.36-.74c1.31,0,1.63.73,1.63,1.83v2.75h-1.22V44.3c0-.74-.22-1.1-.79-1.1s-.95.37-.95,1.28v2.34h-1.23V42.36" transform="translate(-17.5 -14.5)" fill="#0072bc"/><path d="M153.24,43.93a.84.84,0,0,0-.91-.77c-.78,0-1,.79-1,1.45s.25,1.41,1,1.41a1,1,0,0,0,1-.91h1.18a2,2,0,0,1-2.15,1.83,2.17,2.17,0,0,1-2.25-2.29,2.2,2.2,0,0,1,2.28-2.41,1.9,1.9,0,0,1,2.1,1.69h-1.2" transform="translate(-17.5 -14.5)" fill="#0072bc"/><path d="M157.2,47.38a1.39,1.39,0,0,1-1.53,1,6.34,6.34,0,0,1-.76,0v-1a5.79,5.79,0,0,0,.72,0,.57.57,0,0,0,.42-.83l-1.57-4.19h1.32l1,3h0l1-3h1.27l-1.87,5" transform="translate(-17.5 -14.5)" fill="#0072bc"/><line x1="150.07" x2="150.07" y2="34.02" fill="none" stroke="#0072bc" stroke-miterlimit="10" stroke-width="0.5"/></svg>